<svg viewBox="0 0 320 180" xmlns="http://www.w3.org/2000/svg" role="img" aria-label="Elevation layers 0 through 4 as a Cartesian side section" class="il">
  <defs>
    <linearGradient id="panelG-foundation-elevation-layers" x1="0" y1="0" x2="0" y2="1">
      <stop offset="0" stop-color="var(--il-panel-top, #FCFBF9)"/>
      <stop offset="1" stop-color="var(--il-panel, #F7F5F2)"/>
    </linearGradient>
    <filter id="lift-foundation-elevation-layers" x="-60%" y="-60%" width="220%" height="220%">
      <feDropShadow dx="0" dy="4" stdDeviation="3.677"
        flood-color="var(--il-shadow-c, #4A3F33)" flood-opacity="var(--il-shadow-o, 0.16)"/>
    </filter>
  </defs>
<rect x="20" y="20" width="280" height="152" rx="26.0" fill="var(--il-ghost, #EAE7E2)" stroke="var(--il-line, #B9B1A4)" stroke-width="1.0"/>
<rect x="28" y="16" width="264" height="148" rx="20.0" fill="url(#panelG-foundation-elevation-layers)" stroke="var(--il-line, #B9B1A4)" stroke-width="1.0"/>
<rect x="82" y="42.0" width="1.0" height="99.0" fill="var(--il-line, #B9B1A4)" opacity="0.75"/>
<rect x="82" y="140.0" width="174" height="1.0" fill="var(--il-line, #B9B1A4)" opacity="0.85"/>
<line x1="82" y1="116" x2="256" y2="116" fill="none" stroke="var(--il-line, #B9B1A4)" stroke-width="1.0" stroke-dasharray="4 6" opacity="0.7"/>
<line x1="82" y1="92" x2="256" y2="92" fill="none" stroke="var(--il-line, #B9B1A4)" stroke-width="1.0" stroke-dasharray="4 6" opacity="0.7"/>
<line x1="82" y1="68" x2="256" y2="68" fill="none" stroke="var(--il-line, #B9B1A4)" stroke-width="1.0" stroke-dasharray="4 6" opacity="0.7"/>
<line x1="82" y1="44" x2="256" y2="44" fill="none" stroke="var(--il-line, #B9B1A4)" stroke-width="1.0" stroke-dasharray="4 6" opacity="0.7"/>
<rect x="77" y="139.5" width="5" height="1.0" fill="var(--il-line, #B9B1A4)" opacity="0.65"/>
<text x="72" y="140" text-anchor="end" dominant-baseline="central" fill="var(--il-stroke-soft, #9B948A)" font-family="ui-sans-serif, system-ui, sans-serif" font-size="9" font-weight="500">0</text>
<rect x="77" y="115.5" width="5" height="1.0" fill="var(--il-line, #B9B1A4)" opacity="0.65"/>
<text x="72" y="116" text-anchor="end" dominant-baseline="central" fill="var(--il-stroke-soft, #9B948A)" font-family="ui-sans-serif, system-ui, sans-serif" font-size="9" font-weight="500">1</text>
<rect x="77" y="91.5" width="5" height="1.0" fill="var(--il-line, #B9B1A4)" opacity="0.65"/>
<text x="72" y="92" text-anchor="end" dominant-baseline="central" fill="var(--il-stroke-soft, #9B948A)" font-family="ui-sans-serif, system-ui, sans-serif" font-size="9" font-weight="500">2</text>
<rect x="77" y="67.5" width="5" height="1.0" fill="var(--il-line, #B9B1A4)" opacity="0.65"/>
<text x="72" y="68" text-anchor="end" dominant-baseline="central" fill="var(--il-stroke-soft, #9B948A)" font-family="ui-sans-serif, system-ui, sans-serif" font-size="9" font-weight="500">3</text>
<rect x="77" y="43.5" width="5" height="1.0" fill="var(--il-line, #B9B1A4)" opacity="0.65"/>
<text x="72" y="44" text-anchor="end" dominant-baseline="central" fill="var(--il-stroke-soft, #9B948A)" font-family="ui-sans-serif, system-ui, sans-serif" font-size="9" font-weight="500">4</text>
<rect x="88.0" y="136.0" width="36.0" height="8.0" rx="4.00" fill="var(--il-fill-soft, #E9E4DC)"/>
<rect x="119.0" y="112.0" width="36.0" height="8.0" rx="4.00" fill="var(--il-fill, #DCD6CE)"/>
<rect x="150.0" y="88.0" width="36.0" height="8.0" rx="4.00" fill="var(--il-fill, #DCD6CE)"/>
<rect x="181.0" y="64.0" width="36.0" height="8.0" rx="4.00" fill="var(--il-fill, #DCD6CE)"/>
<g filter="url(#lift-foundation-elevation-layers)"><rect x="212.0" y="40.0" width="36.0" height="8.0" rx="4.00" fill="var(--il-accent, #3E9077)"/></g>
</svg>
